#!OML:ASF E:\Style4\Style4.ASF
:FULLY-SPECIFIED
:DEGREES
1325
root 0.238618 16.4598 0.402054 3.3237 15.9379 4.02992
lowerback 12.2334 4.04365 -0.712257
upperback 4.58872 5.27251 -0.489205
thorax -2.04689 2.63408 -0.832316
lowerneck -3.25874 -1.11948 -3.16593
upperneck 18.289 -1.20807 0.623566
head 6.0936 -0.699913 0.657018
rclavicle 9.93923e-014 -3.33958e-014
rhumerus -29.31 24.4165 -56.7387
rradius 135.714
rwrist -73.9282
rhand 56.624 -3.53215
rfingers 7.12502
rthumb 73.5401 17.6238
lclavicle 9.93923e-014 -3.33958e-014
lhumerus -15.2865 -24.4238 51.3947
lradius 137.978
lwrist 74.5354
lhand 33.2171 48.3252
lfingers 7.12502
lthumb 56.5737 65.2609
rfemur -23.8188 -16.4058 14.1842
rtibia 60.641
rfoot -33.0896 -23.2792
rtoes -14.3075
lfemur -27.7506 -4.67336 -24.5448
ltibia 57.5016
lfoot -30.0805 9.10515
ltoes -18.1633
1326
root 0.236999 16.4565 0.401437 3.35382 15.9554 4.05796
lowerback 12.2563 4.06039 -0.725849
upperback 4.528 5.29143 -0.505393
thorax -2.12214 2.64297 -0.84884
lowerneck -4.61823 -1.19547 -3.2046
upperneck 20.0053 -1.24843 0.645911
head 6.88157 -0.725679 0.66255
rclavicle -8.07066e-014 2.06736e-014
rhumerus -29.0459 25.4209 -55.6113
rradius 135.658
rwrist -74.2191
rhand 56.3626 -3.44245
rfingers 7.12502
rthumb 73.4327 16.9094
lclavicle -8.07066e-014 2.06736e-014
lhumerus -14.709 -25.4395 49.8492
lradius 137.962
lwrist 74.5971
lhand 34.4282 49.1514
lfingers 7.12502
lthumb 57.6379 65.1933
rfemur -23.9026 -16.4721 14.1718
rtibia 60.7339
rfoot -32.9742 -23.3759
rtoes -14.8147
lfemur -27.8136 -4.70289 -24.5667
ltibia 57.5638
lfoot -30.0966 9.07994
ltoes -18.1042
1327
root 0.236129 16.4524 0.399751 3.41614 15.972 4.02916
lowerback 12.2192 4.07841 -0.657063
upperback 4.44206 5.32214 -0.522925
thorax -2.18365 2.65821 -0.910451
lowerneck -5.85828 -1.28482 -3.15963
upperneck 21.6161 -1.31078 0.610489
head 7.63037 -0.759246 0.63384
rclavicle -2.76311e-014 -2.06736e-014
rhumerus -28.7999 26.4369 -54.3843
rradius 135.655
rwrist -74.457
rhand 55.8513 -3.27843
rfingers 7.12502
rthumb 73.2133 15.5319
lclavicle -2.76311e-014 -2.06736e-014
lhumerus -14.0962 -26.4652 48.2196
lradius 137.961
lwrist 74.7085
lhand 35.3039 49.7394
lfingers 7.12502
lthumb 58.4016 65.095
rfemur -24.0511 -16.5274 14.2326
rtibia 60.8285
rfoot -32.8351 -23.4756
rtoes -15.3796
lfemur -27.9452 -4.73465 -24.5274
ltibia 57.6396
lfoot -30.1004 9.07044
ltoes -18.023
1328
root 0.235446 16.4488 0.398401 3.41802 15.9964 3.9725
lowerback 12.2104 4.1059 -0.557962
upperback 4.3757 5.36952 -0.514529
thorax -2.23959 2.68175 -0.965642
lowerneck -7.02669 -1.37566 -3.25483
upperneck 23.1364 -1.38999 0.720857
head 8.35583 -0.79733 0.675214
rclavicle -1.72943e-014 -2.38542e-015
rhumerus -28.5645 27.4745 -53.1338
rradius 135.7
rwrist -74.6606
rhand 55.4147 -3.2816
rfingers 7.12502
rthumb 73.0162 14.2452
lclavicle -1.72943e-014 -2.38542e-015
lhumerus -13.4907 -27.4002 46.6374
lradius 137.96
lwrist 75.0041
lhand 35.503 50.0108
lfingers 7.12502
lthumb 58.5746 65.2053
rfemur -24.1228 -16.5851 14.2963
rtibia 60.9065
rfoot -32.5839 -23.7065
rtoes -16.1966
lfemur -28.0094 -4.78025 -24.4633
ltibia 57.7204
lfoot -30.1381 9.0698
ltoes -17.9958
1329
root 0.236246 16.4462 0.397354 3.40632 16.0418 3.94363
lowerback 12.2184 4.10752 -0.523179
upperback 4.29769 5.37537 -0.494569
thorax -2.32405 2.68392 -0.969604
lowerneck -8.17379 -1.44828 -3.40107
upperneck 24.7003 -1.44345 0.864946
head 9.11143 -0.823063 0.740404
rclavicle 5.1684e-015 2.14687e-014
rhumerus -28.2872 28.6321 -51.861
rradius 135.786
rwrist -74.9244
rhand 54.7908 -3.01239
rfingers 7.12502
rthumb 72.7197 12.7333
lclavicle 5.1684e-015 2.14687e-014
lhumerus -13.0062 -28.3857 45.0457
lradius 137.996
lwrist 75.5034
lhand 35.4539 49.9847
lfingers 7.12502
lthumb 58.5319 65.219
rfemur -24.1434 -16.6771 14.3119
rtibia 60.9772
rfoot -32.4078 -23.8887
rtoes -16.7699
lfemur -28.0462 -4.83033 -24.4405
ltibia 57.798
lfoot -30.1596 9.12868
ltoes -18.2299
1330
root 0.236609 16.4436 0.394672 3.42339 16.1058 3.91823
lowerback 12.2401 4.10892 -0.488757
upperback 4.18176 5.37986 -0.491764
thorax -2.4539 2.68505 -0.993844
lowerneck -9.16411 -1.5321 -3.4095
upperneck 26.1446 -1.50658 0.860474
head 9.81381 -0.854744 0.731763
rclavicle -4.9895e-014 -1.59028e-014
rhumerus -28.0095 29.7377 -50.599
rradius 135.812
rwrist -75.1681
rhand 54.3025 -2.55794
rfingers 7.12502
rthumb 72.4761 11.8376
lclavicle -4.9895e-014 -1.59028e-014
lhumerus -12.5278 -29.4691 43.4096
lradius 138.069
lwrist 75.8713
lhand 35.1607 49.6422
lfingers 7.12502
lthumb 58.2771 65.1123
rfemur -24.2041 -16.7768 14.3384
rtibia 61.0543
rfoot -32.5942 -23.5969
rtoes -15.9931
lfemur -28.1312 -4.88477 -24.4198
ltibia 57.8775
lfoot -30.1173 9.23264
ltoes -18.4338
1331
root 0.23498 16.4399 0.391078 3.45977 16.1638 3.95329
lowerback 12.2731 4.12296 -0.488748
upperback 4.06585 5.39544 -0.535199
thorax -2.58826 2.69174 -1.04924
lowerneck -10.0343 -1.63158 -3.40578
upperneck 27.4383 -1.61017 0.89255
head 10.4583 -0.898584 0.72908
rclavicle -1.0297e-013 -1.59028e-015
rhumerus -27.6795 30.7206 -49.3362
rradius 135.76
rwrist -75.4881
rhand 54.2584 -2.41904
rfingers 7.12502
rthumb 72.4536 11.8565
lclavicle -1.0297e-013 -1.59028e-015
lhumerus -11.9386 -30.3893 41.6772
lradius 138.181
lwrist 76.2212
lhand 34.8963 49.6249
lfingers 7.12502
lthumb 58.0468 65.3042
rfemur -24.2867 -16.8751 14.3102
rtibia 61.1438
rfoot -32.8176 -23.1614
rtoes -14.9818
lfemur -28.2259 -4.97605 -24.4497
ltibia 57.9485
lfoot -30.1335 9.24064
ltoes -18.3288
1332
root 0.232581 16.4367 0.386686 3.47862 16.1961 3.99147
lowerback 12.3255 4.11952 -0.531402
upperback 3.965 5.38347 -0.553146
thorax -2.7242 2.68449 -1.05173
lowerneck -10.9424 -1.69348 -3.4706
upperneck 28.7032 -1.65093 0.941262
head 11.1174 -0.917971 0.751268
rclavicle 1.92821e-014 -5.56597e-015
rhumerus -27.1899 31.7516 -47.9751
rradius 135.761
rwrist -75.9024
rhand 54.128 -2.72009
rfingers 7.12502
rthumb 72.3866 11.2021
lclavicle 1.92821e-014 -5.56597e-015
lhumerus -11.4807 -31.3966 40.0735
lradius 138.277
lwrist 76.6382
lhand 34.4634 49.4232
lfingers 7.12502
lthumb 57.6687 65.4382
rfemur -24.3565 -16.9324 14.2863
rtibia 61.2056
rfoot -32.777 -23.0865
rtoes -14.8484
lfemur -28.3102 -5.04102 -24.4776
ltibia 58.0212
lfoot -30.1361 9.22608
ltoes -18.3152
1333
root 0.232674 16.4348 0.384443 3.49014 16.2281 3.99105
lowerback 12.2967 4.09939 -0.576882
upperback 3.88129 5.35145 -0.538359
thorax -2.8019 2.66768 -1.00869
lowerneck -11.7335 -1.76227 -3.54101
upperneck 29.8369 -1.69684 0.961343
head 11.721 -0.943564 0.764089
rclavicle 2.84262e-014 7.15625e-015
rhumerus -26.717 32.8298 -46.7069
rradius 135.793
rwrist -76.119
rhand 53.9421 -2.80643
rfingers 7.12502
rthumb 72.29 10.6172
lclavicle 2.84262e-014 7.15625e-015
lhumerus -11.0973 -32.4922 38.5682
lradius 138.272
lwrist 76.9125
lhand 34.1812 48.8026
lfingers 7.12502
lthumb 57.4216 65.0319
rfemur -24.3818 -16.9824 14.2808
rtibia 61.2189
rfoot -32.6993 -23.1522
rtoes -14.9695
lfemur -28.3557 -5.09343 -24.4792
ltibia 58.0705
lfoot -30.1545 9.25106
ltoes -18.2945
1334
root 0.233576 16.4355 0.384209 3.47797 16.2644 3.87896
lowerback 12.2351 4.08316 -0.505388
upperback 3.74871 5.3389 -0.514568
thorax -2.90289 2.66031 -1.02358
lowerneck -12.1121 -1.86245 -3.56883
upperneck 30.6618 -1.81107 0.968353
head 12.1321 -0.996138 0.756809
rclavicle 1.47101e-014 -5.56597e-015
rhumerus -26.527 33.9689 -45.6856
rradius 135.916
rwrist -76.0645
rhand 53.7877 -2.58773
rfingers 7.12502
rthumb 72.2086 10.4257
lclavicle 1.47101e-014 -5.56597e-015
lhumerus -10.7 -33.446 37.0689
lradius 138.28
lwrist 77.1843
lhand 34.1103 48.4353
lfingers 7.12502
lthumb 57.3595 64.7178
rfemur -24.3712 -17.0263 14.3949
rtibia 61.1762
rfoot -32.4619 -23.4319
rtoes -15.9407
lfemur -28.3955 -5.11338 -24.3671
ltibia 58.1054
lfoot -30.1166 9.38178
ltoes -18.7046
1335
root 0.235044 16.4394 0.385303 3.44521 16.3054 3.76714
lowerback 12.232 4.11009 -0.385795
upperback 3.56569 5.38693 -0.525699
thorax -3.0798 2.68213 -1.11698
lowerneck -12.2108 -1.97039 -3.49415
upperneck 31.2466 -1.97298 0.969215
head 12.3937 -1.05783 0.723267
rclavicle 4.37326e-015 -1.59028e-014
rhumerus -26.407 34.9717 -44.7166
rradius 135.961
rwrist -76.0307
rhand 53.7563 -2.286
rfingers 7.12502
rthumb 72.192 10.6447
lclavicle 4.37326e-015 -1.59028e-014
lhumerus -10.2049 -34.3742 35.5775
lradius 138.351
lwrist 77.6237
lhand 33.9967 48.519
lfingers 7.12502
lthumb 57.2598 64.8866
rfemur -24.3166 -17.0784 14.5064
rtibia 61.1134
rfoot -32.3401 -23.604
rtoes -16.6566
lfemur -28.3933 -5.178 -24.2584
ltibia 58.1066
lfoot -30.1048 9.48091
ltoes -18.8131
1336
root 0.236792 16.4439 0.386432 3.43414 16.3651 3.7093
lowerback 12.2157 4.13257 -0.310379
upperback 3.43341 5.42535 -0.515252
thorax -3.20272 2.69952 -1.15882
lowerneck -12.4558 -2.05531 -3.56731
upperneck 31.8029 -2.08391 1.04349
head 12.6804 -1.10422 0.748968
rclavicle 8.34896e-015 -2.38542e-015
rhumerus -25.955 35.8105 -43.4866
rradius 135.883
rwrist -76.0256
rhand 54.0527 -1.94462
rfingers 7.12502
rthumb 72.3476 11.7749
lclavicle 8.34896e-015 -2.38542e-015
lhumerus -9.63076 -35.1514 34.2054
lradius 138.401
lwrist 78.1465
lhand 33.7931 48.7374
lfingers 7.12502
lthumb 57.0809 65.2558
rfemur -24.2616 -17.1561 14.5524
rtibia 61.0457
rfoot -32.4967 -23.4097
rtoes -16.26
lfemur -28.3821 -5.28439 -24.2045
ltibia 58.0922
lfoot -30.1031 9.54226
ltoes -18.7998
1337
root 0.236786 16.4472 0.385969 3.40966 16.4124 3.68447
lowerback 12.2312 4.1466 -0.300382
upperback 3.33466 5.44532 -0.487596
thorax -3.31582 2.70799 -1.14499
lowerneck -12.7307 -2.13082 -3.71459
upperneck 32.3005 -2.17017 1.14204
head 12.9543 -1.14552 0.80016
rclavicle -7.5737e-014 4.77083e-015
rhumerus -25.4358 36.672 -42.3232
rradius 135.849
rwrist -76.1941
rhand 54.0596 -1.87439
rfingers 7.12502
rthumb 72.3512 11.8637
lclavicle -7.5737e-014 4.77083e-015
lhumerus -9.02393 -35.8612 32.9459
lradius 138.33
lwrist 78.4573
lhand 33.7969 48.7343
lfingers 7.12502
lthumb 57.0843 65.2498
rfemur -24.212 -17.2066 14.5678
rtibia 60.9911
rfoot -32.6214 -23.2395
rtoes -15.696
lfemur -28.3547 -5.35466 -24.1798
ltibia 58.0657
lfoot -30.0891 9.53584
ltoes -18.6888
1338
root 0.238089 16.4487 0.384557 3.38399 16.4276 3.66231
lowerback 12.2423 4.12733 -0.309853
upperback 3.24435 5.41879 -0.466169
thorax -3.41958 2.69363 -1.11921
lowerneck -12.8807 -2.16305 -3.79218
upperneck 32.6274 -2.20496 1.19574
head 13.1287 -1.16252 0.829812
rclavicle 8.22969e-014 -3.33958e-014
rhumerus -24.8892 37.5985 -41.3566
rradius 135.914
rwrist -76.5797
rhand 53.5943 -2.32144
rfingers 7.12502
rthumb 72.1055 10.184
lclavicle 8.22969e-014 -3.33958e-014
lhumerus -8.3504 -36.5771 31.7086
lradius 138.27
lwrist 78.7271
lhand 33.6714 48.2968
lfingers 7.12502
lthumb 56.9739 64.9045
rfemur -24.1642 -17.2225 14.5775
rtibia 60.9347
rfoot -32.7642 -22.9783
rtoes -14.8331
lfemur -28.3241 -5.39907 -24.1674
ltibia 58.0389
lfoot -30.0778 9.52604
ltoes -18.575
1339
root 0.240524 16.4527 0.383475 3.38759 16.438 3.60681
lowerback 12.1955 4.11667 -0.285637
upperback 3.15784 5.40875 -0.436516
thorax -3.48536 2.68766 -1.10113
lowerneck -12.9947 -2.2361 -3.93875
upperneck 32.8782 -2.29797 1.29477
head 13.2681 -1.20776 0.880604
rclavicle -1.07344e-014 2.38542e-014
rhumerus -24.3858 38.3931 -40.4529
rradius 135.968
rwrist -76.7929
rhand 53.2927 -2.50244
rfingers 7.12502
rthumb 71.9417 9.22224
lclavicle -1.07344e-014 2.38542e-014
lhumerus -7.59073 -37.2212 30.5209
lradius 138.295
lwrist 79.1428
lhand 33.381 48.0603
lfingers 7.12502
lthumb 56.7182 64.8787
rfemur -24.1604 -17.2523 14.6268
rtibia 60.8699
rfoot -32.7948 -22.8161
rtoes -14.2336
lfemur -28.3241 -5.43138 -24.121
ltibia 58.0026
lfoot -30.0532 9.57254
ltoes -18.8017
